<svg width="317" height="99" viewBox="0 0 317 99" fill="none" xmlns="http://www.w3.org/2000/svg">
<path d="M5.04 73.48C4.496 73.48 4.064 73.32 3.744 73C3.456 72.648 3.312 72.168 3.312 71.56V38.488C3.312 37.88 3.456 37.416 3.744 37.096C4.064 36.744 4.496 36.568 5.04 36.568C5.584 36.568 6.016 36.744 6.336 37.096C6.656 37.416 6.816 37.88 6.816 38.488L6.864 53.896C9.552 50.632 12.992 49 17.184 49C19.776 49 22.032 49.496 23.952 50.488C25.872 51.48 27.344 52.904 28.368 54.76C29.424 56.584 29.952 58.744 29.952 61.24C29.952 65.144 28.832 68.168 26.592 70.312C24.352 72.424 21.2 73.48 17.136 73.48C12.624 73.48 9.184 71.816 6.816 68.488V71.56C6.816 72.136 6.656 72.6 6.336 72.952C6.048 73.304 5.616 73.48 5.04 73.48ZM16.896 70.456C20.032 70.456 22.4 69.688 24 68.152C25.6 66.584 26.4 64.28 26.4 61.24C26.4 58.36 25.552 56.104 23.856 54.472C22.16 52.84 19.84 52.024 16.896 52.024C14.976 52.024 13.248 52.424 11.712 53.224C10.176 53.992 8.976 55.08 8.112 56.488C7.248 57.896 6.816 59.48 6.816 61.24C6.816 64.088 7.712 66.344 9.504 68.008C11.296 69.64 13.76 70.456 16.896 70.456ZM47.0464 73.48C44.2624 73.48 41.8784 72.92 39.8944 71.8C37.9104 70.68 36.4064 69.192 35.3824 67.336C34.3904 65.448 33.8944 63.416 33.8944 61.24C33.8944 59.064 34.3904 57.048 35.3824 55.192C36.4064 53.304 37.9104 51.8 39.8944 50.68C41.8784 49.56 44.2624 49 47.0464 49C49.8304 49 52.1984 49.56 54.1504 50.68C56.1344 51.8 57.6224 53.304 58.6144 55.192C59.6384 57.048 60.1504 59.064 60.1504 61.24C60.1504 63.416 59.6384 65.448 58.6144 67.336C57.6224 69.192 56.1344 70.68 54.1504 71.8C52.1984 72.92 49.8304 73.48 47.0464 73.48ZM47.0464 70.456C49.9264 70.456 52.2304 69.64 53.9584 68.008C55.7184 66.376 56.5984 64.12 56.5984 61.24C56.5984 58.36 55.7184 56.104 53.9584 54.472C52.2304 52.84 49.9264 52.024 47.0464 52.024C44.1344 52.024 41.7984 52.84 40.0384 54.472C38.3104 56.104 37.4464 58.36 37.4464 61.24C37.4464 64.12 38.3104 66.376 40.0384 68.008C41.7984 69.64 44.1344 70.456 47.0464 70.456ZM76.3901 73.48C73.6061 73.48 71.2221 72.92 69.2381 71.8C67.2541 70.68 65.7501 69.192 64.7261 67.336C63.7341 65.448 63.2381 63.416 63.2381 61.24C63.2381 59.064 63.7341 57.048 64.7261 55.192C65.7501 53.304 67.2541 51.8 69.2381 50.68C71.2221 49.56 73.6061 49 76.3901 49C79.1741 49 81.5421 49.56 83.4941 50.68C85.4781 51.8 86.9661 53.304 87.9581 55.192C88.9821 57.048 89.4941 59.064 89.4941 61.24C89.4941 63.416 88.9821 65.448 87.9581 67.336C86.9661 69.192 85.4781 70.68 83.4941 71.8C81.5421 72.92 79.1741 73.48 76.3901 73.48ZM76.3901 70.456C79.2701 70.456 81.5741 69.64 83.3021 68.008C85.0621 66.376 85.9421 64.12 85.9421 61.24C85.9421 58.36 85.0621 56.104 83.3021 54.472C81.5741 52.84 79.2701 52.024 76.3901 52.024C73.4781 52.024 71.1421 52.84 69.3821 54.472C67.6541 56.104 66.7901 58.36 66.7901 61.24C66.7901 64.12 67.6541 66.376 69.3821 68.008C71.1421 69.64 73.4781 70.456 76.3901 70.456ZM96.8726 73.48C96.3286 73.48 95.8966 73.32 95.5766 73C95.2886 72.648 95.1446 72.168 95.1446 71.56V38.488C95.1446 37.88 95.2886 37.416 95.5766 37.096C95.8966 36.744 96.3286 36.568 96.8726 36.568C97.4166 36.568 97.8486 36.744 98.1686 37.096C98.4886 37.416 98.6486 37.88 98.6486 38.488V59.992L114.585 49.24C114.905 49.016 115.241 48.904 115.593 48.904C116.137 48.904 116.537 49.128 116.793 49.576C116.953 49.8 117.033 50.104 117.033 50.488C117.033 51.064 116.777 51.512 116.265 51.832L107.673 57.544C110.457 59.432 112.617 61.512 114.153 63.784C115.689 66.024 116.745 68.632 117.321 71.608C117.417 72.12 117.321 72.568 117.033 72.952C116.745 73.304 116.329 73.48 115.785 73.48C114.729 73.48 114.105 73.032 113.913 72.136C113.241 69.064 112.249 66.632 110.937 64.84C109.657 63.016 107.625 61.208 104.841 59.416L98.6486 63.592V71.56C98.6486 72.136 98.4886 72.6 98.1686 72.952C97.8806 73.304 97.4486 73.48 96.8726 73.48Z" fill="#523124"/>
<path d="M130.426 73.48C129.21 73.48 128.154 73.096 127.258 72.328C126.362 71.528 125.786 70.472 125.53 69.16L121.882 50.776C121.786 50.264 121.898 49.848 122.218 49.528C122.538 49.176 122.97 49 123.514 49C124.154 49 124.618 49.112 124.906 49.336C125.226 49.528 125.434 49.896 125.53 50.44L128.986 68.776C129.178 69.896 129.658 70.456 130.426 70.456C130.874 70.456 131.21 70.328 131.434 70.072C131.658 69.816 131.818 69.384 131.914 68.776L134.506 52.6C134.666 51.544 135.114 50.68 135.85 50.008C136.586 49.336 137.45 49 138.442 49C139.434 49 140.298 49.336 141.034 50.008C141.802 50.68 142.266 51.544 142.426 52.6L144.97 68.776C145.066 69.384 145.226 69.816 145.45 70.072C145.706 70.328 146.058 70.456 146.506 70.456C147.274 70.456 147.754 69.896 147.946 68.776L151.354 50.44C151.45 49.896 151.642 49.528 151.93 49.336C152.25 49.112 152.73 49 153.37 49C153.978 49 154.426 49.176 154.714 49.528C155.034 49.88 155.146 50.296 155.05 50.776L151.354 69.16C151.066 70.504 150.474 71.56 149.578 72.328C148.682 73.096 147.658 73.48 146.506 73.48C143.914 73.48 142.378 72.008 141.898 69.064L139.354 53.272C139.194 52.44 138.89 52.024 138.442 52.024C137.962 52.024 137.658 52.44 137.53 53.272L134.986 69.064C134.506 72.008 132.986 73.48 130.426 73.48ZM171.453 73.48C168.669 73.48 166.285 72.92 164.301 71.8C162.317 70.68 160.813 69.192 159.789 67.336C158.797 65.448 158.301 63.416 158.301 61.24C158.301 59.064 158.797 57.048 159.789 55.192C160.813 53.304 162.317 51.8 164.301 50.68C166.285 49.56 168.669 49 171.453 49C174.237 49 176.605 49.56 178.557 50.68C180.541 51.8 182.029 53.304 183.021 55.192C184.045 57.048 184.557 59.064 184.557 61.24C184.557 63.416 184.045 65.448 183.021 67.336C182.029 69.192 180.541 70.68 178.557 71.8C176.605 72.92 174.237 73.48 171.453 73.48ZM171.453 70.456C174.333 70.456 176.637 69.64 178.365 68.008C180.125 66.376 181.005 64.12 181.005 61.24C181.005 58.36 180.125 56.104 178.365 54.472C176.637 52.84 174.333 52.024 171.453 52.024C168.541 52.024 166.205 52.84 164.445 54.472C162.717 56.104 161.853 58.36 161.853 61.24C161.853 64.12 162.717 66.376 164.445 68.008C166.205 69.64 168.541 70.456 171.453 70.456ZM191.839 73.48C191.295 73.48 190.863 73.32 190.543 73C190.255 72.648 190.111 72.168 190.111 71.56V50.92C190.111 50.312 190.255 49.848 190.543 49.528C190.831 49.176 191.263 49 191.839 49C192.383 49 192.799 49.176 193.087 49.528C193.407 49.848 193.567 50.312 193.567 50.92V53.8C195.743 50.92 198.751 49.48 202.591 49.48H203.791C204.399 49.48 204.879 49.624 205.231 49.912C205.583 50.168 205.759 50.536 205.759 51.016C205.759 51.496 205.583 51.864 205.231 52.12C204.879 52.376 204.399 52.504 203.791 52.504H202.447C199.727 52.504 197.567 53.288 195.967 54.856C194.399 56.392 193.615 58.488 193.615 61.144V71.56C193.615 72.136 193.455 72.6 193.135 72.952C192.847 73.304 192.415 73.48 191.839 73.48ZM212.462 73.48C211.918 73.48 211.486 73.32 211.166 73C210.878 72.648 210.734 72.168 210.734 71.56V50.92C210.734 50.312 210.878 49.848 211.166 49.528C211.486 49.176 211.918 49 212.462 49C213.038 49 213.47 49.176 213.758 49.528C214.078 49.88 214.238 50.344 214.238 50.92V53.656C215.102 52.216 216.206 51.08 217.55 50.248C218.926 49.416 220.366 49 221.87 49C223.374 49 224.702 49.416 225.854 50.248C227.006 51.048 227.854 52.184 228.398 53.656C229.518 52.152 230.75 51 232.094 50.2C233.47 49.4 234.894 49 236.366 49C238.894 49 240.798 49.784 242.078 51.352C243.358 52.888 243.998 55.176 243.998 58.216V71.56C243.998 72.168 243.838 72.648 243.518 73C243.198 73.32 242.766 73.48 242.222 73.48C241.07 73.48 240.494 72.84 240.494 71.56V58.12C240.494 56.072 240.142 54.552 239.438 53.56C238.766 52.536 237.598 52.024 235.934 52.024C234.526 52.024 233.262 52.456 232.142 53.32C231.022 54.152 230.126 55.368 229.454 56.968V71.56C229.454 72.168 229.294 72.648 228.974 73C228.654 73.32 228.222 73.48 227.678 73.48C227.134 73.48 226.702 73.32 226.382 73C226.094 72.648 225.95 72.168 225.95 71.56V58.84C225.95 56.632 225.55 54.952 224.75 53.8C223.982 52.616 222.878 52.024 221.438 52.024C220.062 52.024 218.83 52.408 217.742 53.176C216.654 53.912 215.79 54.936 215.15 56.248C214.542 57.56 214.238 59.048 214.238 60.712V71.56C214.238 72.136 214.078 72.6 213.758 72.952C213.47 73.304 213.038 73.48 212.462 73.48Z" fill="#D45400"/>
<path d="M303.306 3.55238C301.824 4.1991 300.543 5.24767 299.538 6.52855C298.603 7.72153 297.899 9.11543 297.485 10.5847L304.492 19.0737C304.561 18.9983 304.63 18.923 304.699 18.8476C304.869 18.6656 305.076 18.54 305.296 18.4709C306.64 18.0691 307.851 17.4349 308.913 16.6249C310.055 15.7522 311.029 14.6785 311.832 13.473C313.17 11.4574 313.659 9.48589 313.484 7.7906C313.364 6.59762 312.906 5.53649 312.196 4.68885C311.481 3.84121 310.507 3.21332 309.34 2.88054C307.663 2.40963 305.591 2.54776 303.306 3.55238ZM295.966 12.8827C295.777 13.0397 295.583 13.1904 295.388 13.3285C294.76 13.7618 294.088 14.0694 293.379 14.2515C292.933 14.3645 292.519 14.4336 292.117 14.465L293.529 24.1595C295.244 24.0968 296.976 23.6949 298.615 23.0293C300.009 22.4643 301.334 21.7171 302.514 20.8255L295.966 12.8827ZM307.87 8.29291C308.624 9.04637 308.624 10.2645 307.87 11.0179C307.117 11.7714 305.899 11.7714 305.145 11.0179C304.392 10.2645 304.392 9.04637 305.145 8.29291C305.899 7.53944 307.123 7.53944 307.87 8.29291ZM247.003 39.8315L249.885 45.3632C250.513 45.4134 251.204 45.5955 251.963 45.9157C253.307 46.4871 254.889 47.4415 256.641 48.6156L256.459 43.7621L252.711 41.5959C251.53 40.8675 250.394 40.3527 249.308 40.0764C248.51 39.8692 247.744 39.7876 247.003 39.8315ZM247.305 46.1229L244.397 40.5536C243.613 40.9806 242.991 41.5708 242.545 42.274C242.093 42.9898 241.823 43.8374 241.754 44.7541L246.137 48.9421C246.156 48.3205 246.269 47.7617 246.476 47.2845C246.677 46.8262 246.953 46.4369 247.305 46.1229ZM239.117 45.7462C238.96 45.3946 238.96 44.9865 239.123 44.6348C239.217 43.2535 239.626 41.9663 240.322 40.8613C241.371 39.1974 243.06 37.9542 245.251 37.433L245.32 37.4142C245.484 37.3765 245.672 37.3388 245.873 37.3074C247.198 37.0877 248.56 37.1567 249.954 37.5209C251.298 37.8663 252.673 38.4816 254.079 39.3481L268.081 47.4352C269.99 48.6282 271.836 49.7458 273.531 50.6311C275.164 51.4851 276.639 52.1129 277.87 52.3892L277.876 52.3955C278.328 52.496 278.762 52.496 279.157 52.4143C279.678 52.3076 280.143 52.0627 280.501 51.7111C280.865 51.3532 281.129 50.876 281.254 50.3235L281.261 50.3172C281.355 49.8777 281.361 49.3879 281.254 48.8542C280.953 47.3347 279.672 45.6709 278.153 43.9002C278.046 43.8123 277.952 43.6993 277.876 43.58L277.223 42.8328L276.652 42.1798C275.942 41.3636 275.308 40.6478 274.661 39.9194L274.649 39.9006C273.042 38.0923 271.384 36.2275 269.94 34.3689C267.397 31.0977 265.658 27.2738 265.061 23.5442C264.659 21.0452 264.766 18.5777 265.482 16.3298C266.204 14.038 267.548 11.9974 269.607 10.3963C271.56 8.87684 274.14 7.76548 277.437 7.23806C278.146 7.12504 278.837 7.06853 279.502 7.06853C280.181 7.06853 280.84 7.11876 281.474 7.21294C282.359 7.3448 283.188 7.57712 283.992 7.89106C284.783 8.19872 285.524 8.58173 286.259 9.02125L286.265 9.02753C286.868 9.3917 287.414 9.78099 287.948 10.1577C289.429 11.2126 290.817 12.1983 292.719 11.7149C293.134 11.6081 293.523 11.4323 293.887 11.1812C294.208 10.9614 294.521 10.6726 294.823 10.3273C295.313 8.36197 296.217 6.49088 297.46 4.90861C298.722 3.30123 300.342 1.98267 302.244 1.15386C305.126 -0.108186 307.826 -0.271435 310.055 0.356449C311.744 0.833641 313.17 1.75663 314.212 2.99356C315.26 4.23677 315.926 5.79393 316.102 7.53317C316.334 9.80611 315.725 12.3804 314.017 14.9485C313.057 16.3989 311.876 17.6861 310.507 18.7346C309.289 19.6639 307.921 20.4048 306.401 20.9008C304.555 22.8535 302.182 24.4546 299.607 25.4969C297.002 26.5455 294.17 27.029 291.445 26.7401C290.327 26.6208 289.184 26.4074 288.042 26.062C286.993 25.7481 285.926 25.3211 284.871 24.7623C284.375 24.5049 283.923 24.1972 283.464 23.8896C282.315 23.1235 281.091 22.301 280.262 23.3496C280.068 23.5944 279.942 23.9021 279.929 24.2223C279.917 24.5049 279.992 24.8125 280.174 25.1202L280.187 25.139C281.757 27.4873 283.345 29.6661 284.934 31.8448C285.894 33.1634 286.861 34.482 287.627 35.5682C288.186 36.3531 288.77 37.1379 289.354 37.9165C291.953 41.3887 294.465 44.7416 294.967 48.8542C294.98 48.9233 294.992 48.9986 294.999 49.074V49.1556C295.131 50.4742 295.049 51.8681 294.704 53.375L294.678 53.4943C293.95 56.5395 292.292 59.4466 289.994 61.6442C287.828 63.7162 285.091 65.1541 282.027 65.4869C276.25 66.1085 267.931 60.0368 260.729 54.7877C256.874 51.9434 253.351 49.3754 250.927 48.3456C250.18 48.0254 249.621 47.9312 249.257 48.0129C249.176 48.0317 249.107 48.0631 249.056 48.107C249 48.1573 248.95 48.2326 248.906 48.3268C248.717 48.7663 248.724 49.4696 248.931 50.3737C249.063 50.9576 249.245 51.4851 249.452 51.9748C249.672 52.496 249.917 52.9669 250.174 53.4189C251.562 55.8489 252.924 58.5802 253.426 61.3931C253.96 64.363 253.552 67.3768 251.292 70.1521L251.267 70.1835C250.858 70.6795 250.4 71.1567 249.879 71.6088C249.364 72.0608 248.793 72.4941 248.165 72.921C247.518 73.3605 246.884 73.6933 246.275 73.9131C245.66 74.1329 245.069 74.2459 244.492 74.2396C244.046 74.271 243.6 74.0701 243.324 73.6808C242.903 73.0843 243.048 72.2617 243.644 71.8411C245.138 70.7925 246.287 69.6812 247.072 68.507C247.813 67.3957 248.234 66.2278 248.328 64.9971V64.9595C248.623 61.0791 246.306 58.2348 243.996 55.3968C242.062 53.0234 240.128 50.6437 239.381 47.5357L239.349 47.4227C239.305 47.2406 239.268 47.0396 239.23 46.8324C239.18 46.4683 239.136 46.1041 239.117 45.7462ZM247.305 53.6262C247.192 53.5696 247.085 53.4943 246.984 53.4001L243.066 49.6516C243.876 51.0707 244.963 52.4018 246.043 53.7329C248.422 56.6526 250.808 59.5848 250.984 63.7414C250.997 63.1198 250.934 62.4856 250.821 61.864C250.381 59.4152 249.144 56.9414 247.882 54.7312C247.681 54.3671 247.487 54.0029 247.305 53.6262ZM259.146 45.3192L259.341 50.3863C259.341 50.4239 259.341 50.4616 259.341 50.4993C260.295 51.1837 261.281 51.8995 262.292 52.6404C263.655 53.6324 265.055 54.6559 266.468 55.6542L265.488 48.9798L259.146 45.3192ZM268.408 50.7316L269.425 57.6886C272.382 59.6538 275.277 61.3366 277.807 62.2156L271.717 52.6466C270.656 52.0753 269.544 51.4286 268.408 50.7316ZM276.093 54.6245L281.342 62.8749C281.48 62.8686 281.612 62.8623 281.744 62.8498C284.199 62.5861 286.409 61.4119 288.174 59.7292C288.343 59.5659 288.513 59.3964 288.676 59.2269L280.689 54.6873C280.369 54.8191 280.03 54.9259 279.685 54.9949C278.944 55.1456 278.146 55.1394 277.324 54.9635C276.922 54.8756 276.514 54.7626 276.093 54.6245ZM282.924 52.9292L290.302 57.1172C291.137 55.8049 291.752 54.3545 292.11 52.8601L292.136 52.7722C292.311 51.9999 292.399 51.2527 292.399 50.5307L283.803 51.0267C283.634 51.7299 283.326 52.3704 282.924 52.9292ZM283.854 48.377L292.073 47.8998C291.583 45.9848 290.585 44.1953 289.385 42.4373L281.493 43.7935C282.636 45.2816 283.533 46.7634 283.847 48.3331L283.854 48.377ZM279.546 41.4578L287.671 40.0576L287.244 39.4862C286.654 38.7013 286.064 37.9102 285.48 37.0877C284.601 35.8507 283.847 34.8147 283.107 33.7976L273.87 34.9843C274.781 36.0579 275.716 37.1065 276.633 38.1425L276.646 38.1614C277.361 38.9713 278.071 39.7687 278.661 40.4406L279.22 41.0873L279.546 41.4578ZM271.911 32.5795L281.336 31.3677C280.306 29.9424 279.295 28.5233 278.335 27.1169L278.322 27.1106L267.548 22.1315C267.579 22.458 267.623 22.7908 267.673 23.1235C268.194 26.3509 269.701 29.6912 271.911 32.5795ZM267.56 19.2244L277.317 23.7389C277.418 22.9791 277.732 22.2696 278.19 21.692C278.623 21.1457 279.057 20.7501 279.484 20.4864L276.821 10.0259C274.492 10.5219 272.646 11.3695 271.24 12.4683C269.62 13.7304 268.565 15.3315 268 17.1272C267.786 17.7991 267.642 18.5023 267.56 19.2244ZM279.465 9.69309L282.127 20.1599C283.088 20.4487 284.03 21.0766 284.94 21.6857C285.354 21.9619 285.769 22.2382 286.108 22.4203C286.999 22.8912 287.904 23.2491 288.801 23.5191C289.492 23.7263 290.177 23.877 290.848 23.9837L289.404 14.0632C288.337 13.6488 287.395 12.9769 286.428 12.2863C285.932 11.9346 285.43 11.5767 284.921 11.2691C284.293 10.8923 283.678 10.5784 283.05 10.3335C282.435 10.0949 281.788 9.91285 281.097 9.81239C280.589 9.73704 280.068 9.69309 279.534 9.69309H279.465Z" fill="#D45400"/>
</svg>
