<svg width="241" height="38" viewBox="0 0 241 38" fill="none" xmlns="http://www.w3.org/2000/svg">
<path d="M2.04 37.48C1.496 37.48 1.064 37.32 0.744 37C0.456 36.648 0.312 36.168 0.312 35.56V2.488C0.312 1.88 0.456 1.416 0.744 1.096C1.064 0.743998 1.496 0.567997 2.04 0.567997C2.584 0.567997 3.016 0.743998 3.336 1.096C3.656 1.416 3.816 1.88 3.816 2.488L3.864 17.896C6.552 14.632 9.992 13 14.184 13C16.776 13 19.032 13.496 20.952 14.488C22.872 15.48 24.344 16.904 25.368 18.76C26.424 20.584 26.952 22.744 26.952 25.24C26.952 29.144 25.832 32.168 23.592 34.312C21.352 36.424 18.2 37.48 14.136 37.48C9.624 37.48 6.184 35.816 3.816 32.488V35.56C3.816 36.136 3.656 36.6 3.336 36.952C3.048 37.304 2.616 37.48 2.04 37.48ZM13.896 34.456C17.032 34.456 19.4 33.688 21 32.152C22.6 30.584 23.4 28.28 23.4 25.24C23.4 22.36 22.552 20.104 20.856 18.472C19.16 16.84 16.84 16.024 13.896 16.024C11.976 16.024 10.248 16.424 8.712 17.224C7.176 17.992 5.976 19.08 5.112 20.488C4.248 21.896 3.816 23.48 3.816 25.24C3.816 28.088 4.712 30.344 6.504 32.008C8.296 33.64 10.76 34.456 13.896 34.456ZM44.0464 37.48C41.2624 37.48 38.8784 36.92 36.8944 35.8C34.9104 34.68 33.4064 33.192 32.3824 31.336C31.3904 29.448 30.8944 27.416 30.8944 25.24C30.8944 23.064 31.3904 21.048 32.3824 19.192C33.4064 17.304 34.9104 15.8 36.8944 14.68C38.8784 13.56 41.2624 13 44.0464 13C46.8304 13 49.1984 13.56 51.1504 14.68C53.1344 15.8 54.6224 17.304 55.6144 19.192C56.6384 21.048 57.1504 23.064 57.1504 25.24C57.1504 27.416 56.6384 29.448 55.6144 31.336C54.6224 33.192 53.1344 34.68 51.1504 35.8C49.1984 36.92 46.8304 37.48 44.0464 37.48ZM44.0464 34.456C46.9264 34.456 49.2304 33.64 50.9584 32.008C52.7184 30.376 53.5984 28.12 53.5984 25.24C53.5984 22.36 52.7184 20.104 50.9584 18.472C49.2304 16.84 46.9264 16.024 44.0464 16.024C41.1344 16.024 38.7984 16.84 37.0384 18.472C35.3104 20.104 34.4464 22.36 34.4464 25.24C34.4464 28.12 35.3104 30.376 37.0384 32.008C38.7984 33.64 41.1344 34.456 44.0464 34.456ZM73.3901 37.48C70.6061 37.48 68.2221 36.92 66.2381 35.8C64.2541 34.68 62.7501 33.192 61.7261 31.336C60.7341 29.448 60.2381 27.416 60.2381 25.24C60.2381 23.064 60.7341 21.048 61.7261 19.192C62.7501 17.304 64.2541 15.8 66.2381 14.68C68.2221 13.56 70.6061 13 73.3901 13C76.1741 13 78.5421 13.56 80.4941 14.68C82.4781 15.8 83.9661 17.304 84.9581 19.192C85.9821 21.048 86.4941 23.064 86.4941 25.24C86.4941 27.416 85.9821 29.448 84.9581 31.336C83.9661 33.192 82.4781 34.68 80.4941 35.8C78.5421 36.92 76.1741 37.48 73.3901 37.48ZM73.3901 34.456C76.2701 34.456 78.5741 33.64 80.3021 32.008C82.0621 30.376 82.9421 28.12 82.9421 25.24C82.9421 22.36 82.0621 20.104 80.3021 18.472C78.5741 16.84 76.2701 16.024 73.3901 16.024C70.4781 16.024 68.1421 16.84 66.3821 18.472C64.6541 20.104 63.7901 22.36 63.7901 25.24C63.7901 28.12 64.6541 30.376 66.3821 32.008C68.1421 33.64 70.4781 34.456 73.3901 34.456ZM93.8726 37.48C93.3286 37.48 92.8966 37.32 92.5766 37C92.2886 36.648 92.1446 36.168 92.1446 35.56V2.488C92.1446 1.88 92.2886 1.416 92.5766 1.096C92.8966 0.743998 93.3286 0.567997 93.8726 0.567997C94.4166 0.567997 94.8486 0.743998 95.1686 1.096C95.4886 1.416 95.6486 1.88 95.6486 2.488V23.992L111.585 13.24C111.905 13.016 112.241 12.904 112.593 12.904C113.137 12.904 113.537 13.128 113.793 13.576C113.953 13.8 114.033 14.104 114.033 14.488C114.033 15.064 113.777 15.512 113.265 15.832L104.673 21.544C107.457 23.432 109.617 25.512 111.153 27.784C112.689 30.024 113.745 32.632 114.321 35.608C114.417 36.12 114.321 36.568 114.033 36.952C113.745 37.304 113.329 37.48 112.785 37.48C111.729 37.48 111.105 37.032 110.913 36.136C110.241 33.064 109.249 30.632 107.937 28.84C106.657 27.016 104.625 25.208 101.841 23.416L95.6486 27.592V35.56C95.6486 36.136 95.4886 36.6 95.1686 36.952C94.8806 37.304 94.4486 37.48 93.8726 37.48Z" fill="#2C1810"/>
<path d="M127.426 37.48C126.21 37.48 125.154 37.096 124.258 36.328C123.362 35.528 122.786 34.472 122.53 33.16L118.882 14.776C118.786 14.264 118.898 13.848 119.218 13.528C119.538 13.176 119.97 13 120.514 13C121.154 13 121.618 13.112 121.906 13.336C122.226 13.528 122.434 13.896 122.53 14.44L125.986 32.776C126.178 33.896 126.658 34.456 127.426 34.456C127.874 34.456 128.21 34.328 128.434 34.072C128.658 33.816 128.818 33.384 128.914 32.776L131.506 16.6C131.666 15.544 132.114 14.68 132.85 14.008C133.586 13.336 134.45 13 135.442 13C136.434 13 137.298 13.336 138.034 14.008C138.802 14.68 139.266 15.544 139.426 16.6L141.97 32.776C142.066 33.384 142.226 33.816 142.45 34.072C142.706 34.328 143.058 34.456 143.506 34.456C144.274 34.456 144.754 33.896 144.946 32.776L148.354 14.44C148.45 13.896 148.642 13.528 148.93 13.336C149.25 13.112 149.73 13 150.37 13C150.978 13 151.426 13.176 151.714 13.528C152.034 13.88 152.146 14.296 152.05 14.776L148.354 33.16C148.066 34.504 147.474 35.56 146.578 36.328C145.682 37.096 144.658 37.48 143.506 37.48C140.914 37.48 139.378 36.008 138.898 33.064L136.354 17.272C136.194 16.44 135.89 16.024 135.442 16.024C134.962 16.024 134.658 16.44 134.53 17.272L131.986 33.064C131.506 36.008 129.986 37.48 127.426 37.48ZM168.453 37.48C165.669 37.48 163.285 36.92 161.301 35.8C159.317 34.68 157.813 33.192 156.789 31.336C155.797 29.448 155.301 27.416 155.301 25.24C155.301 23.064 155.797 21.048 156.789 19.192C157.813 17.304 159.317 15.8 161.301 14.68C163.285 13.56 165.669 13 168.453 13C171.237 13 173.605 13.56 175.557 14.68C177.541 15.8 179.029 17.304 180.021 19.192C181.045 21.048 181.557 23.064 181.557 25.24C181.557 27.416 181.045 29.448 180.021 31.336C179.029 33.192 177.541 34.68 175.557 35.8C173.605 36.92 171.237 37.48 168.453 37.48ZM168.453 34.456C171.333 34.456 173.637 33.64 175.365 32.008C177.125 30.376 178.005 28.12 178.005 25.24C178.005 22.36 177.125 20.104 175.365 18.472C173.637 16.84 171.333 16.024 168.453 16.024C165.541 16.024 163.205 16.84 161.445 18.472C159.717 20.104 158.853 22.36 158.853 25.24C158.853 28.12 159.717 30.376 161.445 32.008C163.205 33.64 165.541 34.456 168.453 34.456ZM188.839 37.48C188.295 37.48 187.863 37.32 187.543 37C187.255 36.648 187.111 36.168 187.111 35.56V14.92C187.111 14.312 187.255 13.848 187.543 13.528C187.831 13.176 188.263 13 188.839 13C189.383 13 189.799 13.176 190.087 13.528C190.407 13.848 190.567 14.312 190.567 14.92V17.8C192.743 14.92 195.751 13.48 199.591 13.48H200.791C201.399 13.48 201.879 13.624 202.231 13.912C202.583 14.168 202.759 14.536 202.759 15.016C202.759 15.496 202.583 15.864 202.231 16.12C201.879 16.376 201.399 16.504 200.791 16.504H199.447C196.727 16.504 194.567 17.288 192.967 18.856C191.399 20.392 190.615 22.488 190.615 25.144V35.56C190.615 36.136 190.455 36.6 190.135 36.952C189.847 37.304 189.415 37.48 188.839 37.48ZM209.462 37.48C208.918 37.48 208.486 37.32 208.166 37C207.878 36.648 207.734 36.168 207.734 35.56V14.92C207.734 14.312 207.878 13.848 208.166 13.528C208.486 13.176 208.918 13 209.462 13C210.038 13 210.47 13.176 210.758 13.528C211.078 13.88 211.238 14.344 211.238 14.92V17.656C212.102 16.216 213.206 15.08 214.55 14.248C215.926 13.416 217.366 13 218.87 13C220.374 13 221.702 13.416 222.854 14.248C224.006 15.048 224.854 16.184 225.398 17.656C226.518 16.152 227.75 15 229.094 14.2C230.47 13.4 231.894 13 233.366 13C235.894 13 237.798 13.784 239.078 15.352C240.358 16.888 240.998 19.176 240.998 22.216V35.56C240.998 36.168 240.838 36.648 240.518 37C240.198 37.32 239.766 37.48 239.222 37.48C238.07 37.48 237.494 36.84 237.494 35.56V22.12C237.494 20.072 237.142 18.552 236.438 17.56C235.766 16.536 234.598 16.024 232.934 16.024C231.526 16.024 230.262 16.456 229.142 17.32C228.022 18.152 227.126 19.368 226.454 20.968V35.56C226.454 36.168 226.294 36.648 225.974 37C225.654 37.32 225.222 37.48 224.678 37.48C224.134 37.48 223.702 37.32 223.382 37C223.094 36.648 222.95 36.168 222.95 35.56V22.84C222.95 20.632 222.55 18.952 221.75 17.8C220.982 16.616 219.878 16.024 218.438 16.024C217.062 16.024 215.83 16.408 214.742 17.176C213.654 17.912 212.79 18.936 212.15 20.248C211.542 21.56 211.238 23.048 211.238 24.712V35.56C211.238 36.136 211.078 36.6 210.758 36.952C210.47 37.304 210.038 37.48 209.462 37.48Z" fill="#D45400"/>
</svg>
